User Type,Username,Date,Text
[V],mrspatula,2010-02-23T15:25Z,Moved.
,kittehdoll,2010-09-18T14:26Z,Thanks! ^_^
,i_am_sid,2010-10-25T03:10Z,"Format                           : MPEG-4
Format profile                   : Base Media / Version 2
Codec ID                         : mp42
File size                        : 662 MiB
Duration                         : 2h 17mn
Overall bit rate                 : 672 Kbps
Encoded date                     : UTC 2010-02-18 15:59:26
Tagged date                      : UTC 2010-02-18 16:03:39
Writing application              : mp4creator 1.6.1d

Video
ID                               : 1
Format                           : MPEG-4 Visual
Format profile                   : Simple@L3
Format settings, BVOP            : No
Format settings, QPel            : No
Format settings, GMC             : No warppoints
Format settings, Matrix          : Default (H.263)
Codec ID                         : 20
Duration                         : 2h 17mn
Bit rate mode                    : Variable
Bit rate                         : 512 Kbps
Maximum bit rate                 : 2 249 Kbps
Width                            : 480 pixels
Height                           : 270 pixels
Display aspect ratio             : 16:9
Frame rate mode                  : Variable
Frame rate                       : 23.976 fps
Minimum frame rate               : 23.974 fps
Maximum frame rate               : 23.981 fps
Color space                      : YUV
Chroma subsampling               : 4:2:0
Bit depth                        : 8 bits
Scan type                        : Progressive
Bits/(Pixel*Frame)               : 0.165
Stream size                      : 504 MiB (76%)

ID                               : 2
Format                           : AAC
Format/Info                      : Advanced Audio Codec
Format version                   : Version 4
Format profile                   : LC
Format settings, SBR             : No
Codec ID                         : 40
Duration                         : 2h 17mn
Bit rate mode                    : Variable
Bit rate                         : 158 Kbps
Maximum bit rate                 : 223 Kbps
Channel(s)                       : 2 channels
Channel positions                : Front: L R
Sampling rate                    : 44.1 KHz
Stream size                      : 155 MiB (23%)"
,frankogus,2010-11-26T06:57Z,"Downloading.. i'll give the V,A rating after"
,frankogus,2010-11-26T08:45Z,"The movie is great
V:8
A:9
M:10 
Love it.."
,yumemiji,2010-12-24T06:57Z,Very very nice film!  Thousand thanks for uploading.
,yumemiji,2010-12-24T13:18Z,http://www.imdb.com/title/tt0293715/
,tapper101,2011-03-20T23:27Z,"V:6
A:7

I'm extremely disappointed with the video quality. Looks like a screener."
,rexxer84,2011-04-29T09:50Z,"geat upload..good quality!...is there any Korean movies?...pls,upload..thnks!"
,apochai,2011-06-19T20:06Z,@tapper101.. you are extremely stupid!
,SCHWEITZERG,2011-09-09T00:15Z,"V: 10
A: 10

Great torrent!"
,SCHWEITZERG,2011-09-09T00:18Z,"V: 10
A: 10

Thanks!"
,isetta151,2011-09-17T10:26Z,thank you!!!!
,AKBangash,2011-09-22T23:28Z,a love story that goes deep into your heart
,NishChhaL,2011-10-29T12:28Z,I didn't get the sub titles.....help me please...(seeding)
,WolfParty,2012-04-15T23:24Z,"Great Film! Highly recommended for anyone who's into quirky romantic comedies. 
Thanks TokeUp."
